name rise31.4854peak64.571fall78.6902.mot
datacolumns 19
datarows 27
range 5.21498000000000 5.25831100000000
endheader
time	ground_force1_vx	ground_force1_vy	ground_force1_vz	ground_force1_px	ground_force1_py	ground_force1_pz	ground_force2_vx	ground_force2_vy	ground_force2_vz	ground_force2_px	ground_force2_py	ground_force2_pz	ground_torque1_x	ground_torque1_y	ground_torque1_z	ground_torque2_x	ground_torque2_y	ground_torque2_z	
5.21498000000000	58.53871200000000	753.04084699999999	44.34194900000000	0.31657600000000	0.00000000000000	0.08678200000000	0.00000000000000	0.00000000000000	0.00000000000000	0.00000000000000	0.00000000000000	0.00000000000000	0.00000000000000	16.66372300000000	0.00000000000000	0.00000000000000	0.00000000000000	0.00000000000000	
5.21665200000000	57.78838300000000	754.73643600000003	44.51462900000000	0.31540900000000	0.00000000000000	0.08686500000000	0.00000000000000	0.00000000000000	0.00000000000000	0.00000000000000	0.00000000000000	0.00000000000000	0.00000000000000	16.76434900000000	0.00000000000000	0.00000000000000	0.00000000000000	0.00000000000000	
5.21831800000000	57.04558800000000	756.35006399999997	44.68626100000000	0.31427600000000	0.00000000000000	0.08694700000000	0.00000000000000	0.00000000000000	0.00000000000000	0.00000000000000	0.00000000000000	0.00000000000000	0.00000000000000	16.86583200000000	0.00000000000000	0.00000000000000	0.00000000000000	0.00000000000000	
5.21997800000000	56.31064500000000	757.88092600000004	44.85666900000000	0.31317800000000	0.00000000000000	0.08702900000000	0.00000000000000	0.00000000000000	0.00000000000000	0.00000000000000	0.00000000000000	0.00000000000000	0.00000000000000	16.96802900000000	0.00000000000000	0.00000000000000	0.00000000000000	0.00000000000000	
5.22166100000000	55.58380000000000	759.32821700000000	45.02563400000000	0.31211200000000	0.00000000000000	0.08710900000000	0.00000000000000	0.00000000000000	0.00000000000000	0.00000000000000	0.00000000000000	0.00000000000000	0.00000000000000	17.07076400000000	0.00000000000000	0.00000000000000	0.00000000000000	0.00000000000000	
5.22331500000000	54.86522300000000	760.69114900000000	45.19289700000000	0.31107600000000	0.00000000000000	0.08718900000000	0.00000000000000	0.00000000000000	0.00000000000000	0.00000000000000	0.00000000000000	0.00000000000000	0.00000000000000	17.17383900000000	0.00000000000000	0.00000000000000	0.00000000000000	0.00000000000000	
5.22498400000000	54.15501700000000	761.96895900000004	45.35816700000000	0.31007100000000	0.00000000000000	0.08726700000000	0.00000000000000	0.00000000000000	0.00000000000000	0.00000000000000	0.00000000000000	0.00000000000000	0.00000000000000	17.27702500000000	0.00000000000000	0.00000000000000	0.00000000000000	0.00000000000000	
5.22665000000000	53.45322400000000	763.16092900000001	45.52111800000000	0.30909300000000	0.00000000000000	0.08734500000000	0.00000000000000	0.00000000000000	0.00000000000000	0.00000000000000	0.00000000000000	0.00000000000000	0.00000000000000	17.38007800000000	0.00000000000000	0.00000000000000	0.00000000000000	0.00000000000000	
5.22831600000000	52.75982100000000	764.26639200000000	45.68140300000000	0.30814100000000	0.00000000000000	0.08742200000000	0.00000000000000	0.00000000000000	0.00000000000000	0.00000000000000	0.00000000000000	0.00000000000000	0.00000000000000	17.48272800000000	0.00000000000000	0.00000000000000	0.00000000000000	0.00000000000000	
5.22998600000000	52.07473400000000	765.28474700000004	45.83864800000000	0.30721200000000	0.00000000000000	0.08749900000000	0.00000000000000	0.00000000000000	0.00000000000000	0.00000000000000	0.00000000000000	0.00000000000000	0.00000000000000	17.58469400000000	0.00000000000000	0.00000000000000	0.00000000000000	0.00000000000000	
5.23164800000000	51.39783500000000	766.21547299999997	45.99246700000000	0.30630500000000	0.00000000000000	0.08757500000000	0.00000000000000	0.00000000000000	0.00000000000000	0.00000000000000	0.00000000000000	0.00000000000000	0.00000000000000	17.68567700000000	0.00000000000000	0.00000000000000	0.00000000000000	0.00000000000000	
5.23331200000000	50.72895000000000	767.05813400000000	46.14245700000000	0.30541800000000	0.00000000000000	0.08765000000000	0.00000000000000	0.00000000000000	0.00000000000000	0.00000000000000	0.00000000000000	0.00000000000000	0.00000000000000	17.78537100000000	0.00000000000000	0.00000000000000	0.00000000000000	0.00000000000000	
5.23498200000000	50.06786400000000	767.81239400000004	46.28821000000000	0.30454800000000	0.00000000000000	0.08772500000000	0.00000000000000	0.00000000000000	0.00000000000000	0.00000000000000	0.00000000000000	0.00000000000000	0.00000000000000	17.88345800000000	0.00000000000000	0.00000000000000	0.00000000000000	0.00000000000000	
5.23664400000000	49.41432500000000	768.47802500000000	46.42931400000000	0.30369300000000	0.00000000000000	0.08779900000000	0.00000000000000	0.00000000000000	0.00000000000000	0.00000000000000	0.00000000000000	0.00000000000000	0.00000000000000	17.97961900000000	0.00000000000000	0.00000000000000	0.00000000000000	0.00000000000000	
5.23831800000000	48.76804700000000	769.05491400000005	46.56535600000000	0.30285100000000	0.00000000000000	0.08787200000000	0.00000000000000	0.00000000000000	0.00000000000000	0.00000000000000	0.00000000000000	0.00000000000000	0.00000000000000	18.07352900000000	0.00000000000000	0.00000000000000	0.00000000000000	0.00000000000000	
5.23998000000000	48.12872000000000	769.54307300000005	46.69593100000000	0.30201900000000	0.00000000000000	0.08794600000000	0.00000000000000	0.00000000000000	0.00000000000000	0.00000000000000	0.00000000000000	0.00000000000000	0.00000000000000	18.16486500000000	0.00000000000000	0.00000000000000	0.00000000000000	0.00000000000000	
5.24164900000000	47.49600600000000	769.94264399999997	46.82064000000000	0.30119500000000	0.00000000000000	0.08801800000000	0.00000000000000	0.00000000000000	0.00000000000000	0.00000000000000	0.00000000000000	0.00000000000000	0.00000000000000	18.25330800000000	0.00000000000000	0.00000000000000	0.00000000000000	0.00000000000000	
5.24331500000000	46.86955300000000	770.25390500000003	46.93909900000000	0.30037700000000	0.00000000000000	0.08809100000000	0.00000000000000	0.00000000000000	0.00000000000000	0.00000000000000	0.00000000000000	0.00000000000000	0.00000000000000	18.33854400000000	0.00000000000000	0.00000000000000	0.00000000000000	0.00000000000000	
5.24498500000000	46.24899300000000	770.47727699999996	47.05094200000000	0.29956200000000	0.00000000000000	0.08816300000000	0.00000000000000	0.00000000000000	0.00000000000000	0.00000000000000	0.00000000000000	0.00000000000000	0.00000000000000	18.42026600000000	0.00000000000000	0.00000000000000	0.00000000000000	0.00000000000000	
5.24665000000000	45.63394900000000	770.61332600000003	47.15582200000000	0.29874700000000	0.00000000000000	0.08823500000000	0.00000000000000	0.00000000000000	0.00000000000000	0.00000000000000	0.00000000000000	0.00000000000000	0.00000000000000	18.49818200000000	0.00000000000000	0.00000000000000	0.00000000000000	0.00000000000000	
5.24831700000000	45.02403900000000	770.66276900000003	47.25341600000000	0.29793200000000	0.00000000000000	0.08830700000000	0.00000000000000	0.00000000000000	0.00000000000000	0.00000000000000	0.00000000000000	0.00000000000000	0.00000000000000	18.57200800000000	0.00000000000000	0.00000000000000	0.00000000000000	0.00000000000000	
5.24998000000000	44.41888000000000	770.62647200000004	47.34342700000000	0.29711200000000	0.00000000000000	0.08837900000000	0.00000000000000	0.00000000000000	0.00000000000000	0.00000000000000	0.00000000000000	0.00000000000000	0.00000000000000	18.64148100000000	0.00000000000000	0.00000000000000	0.00000000000000	0.00000000000000	
5.25164700000000	43.81809000000000	770.50545599999998	47.42559000000000	0.29628700000000	0.00000000000000	0.08845100000000	0.00000000000000	0.00000000000000	0.00000000000000	0.00000000000000	0.00000000000000	0.00000000000000	0.00000000000000	18.70635000000000	0.00000000000000	0.00000000000000	0.00000000000000	0.00000000000000	
5.25331100000000	43.22129800000000	770.30089399999997	47.49966800000000	0.29545400000000	0.00000000000000	0.08852300000000	0.00000000000000	0.00000000000000	0.00000000000000	0.00000000000000	0.00000000000000	0.00000000000000	0.00000000000000	18.76638900000000	0.00000000000000	0.00000000000000	0.00000000000000	0.00000000000000	
5.25498500000000	42.62813700000000	770.01411399999995	47.56546100000000	0.29461100000000	0.00000000000000	0.08859400000000	0.00000000000000	0.00000000000000	0.00000000000000	0.00000000000000	0.00000000000000	0.00000000000000	0.00000000000000	18.82138900000000	0.00000000000000	0.00000000000000	0.00000000000000	0.00000000000000	
5.25665000000000	42.03825700000000	769.64659500000005	47.62280500000000	0.29375600000000	0.00000000000000	0.08866600000000	0.00000000000000	0.00000000000000	0.00000000000000	0.00000000000000	0.00000000000000	0.00000000000000	0.00000000000000	18.87116600000000	0.00000000000000	0.00000000000000	0.00000000000000	0.00000000000000	
5.25831100000000	41.45132300000000	769.19996600000002	47.67156900000000	0.29288700000000	0.00000000000000	0.08873800000000	0.00000000000000	0.00000000000000	0.00000000000000	0.00000000000000	0.00000000000000	0.00000000000000	0.00000000000000	18.91555800000000	0.00000000000000	0.00000000000000	0.00000000000000	0.00000000000000	
